<svg width="17" height="16" viewBox="0 0 17 16" fill="none" xmlns="http://www.w3.org/2000/svg"><path d="M10.95 1.14409C12.635.648089 13.934 1.41409 14.527 2.32309 15.2 2.09209 15.858 1.84209 16.538 1.61509 16.5249 2.30145 16.2117 2.94761 15.681 3.38309 16.366 3.55309 16.985 2.89209 16.985 2.89209 16.816 3.89209 15.979 4.68009 15.422 4.91609 15.191 11.6661 12.247 16.1331 5.34498 15.9981H4.89898C4.48898 15.9981.734977 15.5381 976562e-9 14.1111 2.27198 14.3071 3.89398 13.6891 4.69398 12.9341 3.73398 12.6341 2.01498 12.4571 1.71498 9.98409 2.06398 10.0901 2.27898 10.2121 2.90498 10.1031 1.70498 9.24709.373977 8.53009.447977 6.33009.732977 6.65809 1.51498 6.86609 1.78798 6.80209 1.08498 6.56109-.182023 3.44209.893977 1.85009 2.71198 3.70409 4.62898 5.45609 8.04598 5.62309 8.25398 3.33009 9.18298 1.79309 10.95 1.14409z" fill="#fff"/></svg>